# xmcd
#
# Track frame offsets:
#	150
#	17778
#	34896
#	50794
#	71478
#	88804
#	103630
#	121216
#	138329
#	154242
#	174938
#	192273
#
# Disc length: 2760 seconds
#
# Revision: 0
# Processed by: cddbd v1.5.2PL0 Copyright (c) Steve Scherf et al.
# Submitted via: audiograbber 1.83.01
#
DISCID=a30ac60c
DTITLE=Various Artist - CBCDG-20285
DYEAR=2001
DGENRE=Country
TTITLE0=Love Is Enough (w/vocals)
TTITLE1=Why Do They Call It Falling (w/vocals)
TTITLE2=What I Really Meant To Say (w/vocals)
TTITLE3=Come A Little Closer (w/vocals)
TTITLE4=Complicated (w/vocals)
TTITLE5=You Win Again (w/vocals)
TTITLE6=Love Is Enough
TTITLE7=Why Do They Call It Falling
TTITLE8=What I Really Meant To Say 
TTITLE9=Come A Little Closer
TTITLE10=Complicated
TTITLE11=You Win Again
EXTD=
EXTT0=
EXTT1=
EXTT2=
EXTT3=
EXTT4=
EXTT5=
EXTT6=
EXTT7=
EXTT8=
EXTT9=
EXTT10=
EXTT11=
PLAYORDER=
